<svg xmlns="http://www.w3.org/2000/svg" viewBox="0 0 594.39 658.21"><defs><style>.cls-1{fill:#ffbf00;}</style></defs><title>Octavian</title><g id="Layer_2" data-name="Layer 2"><g id="Layer_1-2" data-name="Layer 1"><g id="Logo"><path class="cls-1" d="M586.9,210.55c-48.63,14.74-394.35,43.89-298.43-17.29,101.17-64.4-174-56.6-125.74-86.6C230.68,64.3,128.16-12,68.67,1.59c-5.76,1.19-10.5,4.07-12.2,22.2-1.18,14.07-2,22-2.37,26.44a7.36,7.36,0,0,1-.17.85v1l-.17.17v.68L33.09,275.28,29.19,318l141.67-.33C166,365.77,100.36,401.87,21.39,401l-.5,6.1L4.79,580.66v.51l-.17,1.52-.17,1.7-.17,1.86v.34a6.27,6.27,0,0,1-.17,1.86c-.68,6.61-1.69,17.63-3.39,35.25-2.54,28.13,2.2,37.79,5.59,33.56,55.08-70.33,131.34-262.85,230-229.8,114.22,38.3,100.66-149.3,146.08-93C433.37,397.81,635.54,195.8,586.9,210.55ZM111.72,197.16A18.81,18.81,0,0,1,91.21,214.1h-.34a18.81,18.81,0,0,1-16.94-20.5L75.62,176A18.93,18.93,0,0,1,96.13,159l.34.17a18.88,18.88,0,0,1,16.94,20.33Z"/></g></g></g></svg>